# xmcd
#
# Track frame offsets:
#	150
#	16557
#	33465
#	70975
#	99457
#	128500
#	158795
#
# Disc length: 2393 seconds
# Revision: 0
# Processed by: cddbd v1.5.2PL0 Copyright (c) Steve Scherf et al.
# Submitted via: dBpowerAMP V12.0
#
DISCID=4a095707
DTITLE=Lutrher Vandross - Take You Out
DYEAR=2001
DGENRE=R&B
TTITLE0=Take You Out [Original Radio Version]
TTITLE1=Take You Out Tonight [Allstar Radio Edit]
TTITLE2=Take You Out [Karmadelic Take You There Mix]
TTITLE3=Take You Out [Nu Soul Club Mix]
TTITLE4=Take You Out [Karmadelic Luther Dub]
TTITLE5=Take You Out [Maurice's Nu Tribal Mix]
TTITLE6=You Really Started Something
EXTD=
EXTT0=
EXTT1=
EXTT2=
EXTT3=
EXTT4=
EXTT5=
EXTT6=
PLAYORDER=
